<?xml version="1.0" encoding="iso-8859-1"?>
<!-- Uploaded to: SVG Repo, www.svgrepo.com, Generator: SVG Repo Mixer Tools -->
<svg fill="#000000" height="800px" width="800px" version="1.1" id="Layer_1" xmlns="http://www.w3.org/2000/svg" xmlns:xlink="http://www.w3.org/1999/xlink" 
	 viewBox="0 0 290.626 290.626" xml:space="preserve">
<g>
	<g>
		<g>
			<path d="M255.206,281.251L255.206,281.251c1.613-2.771,2.606-5.945,2.606-9.376c0-6.909-3.797-12.891-9.375-16.144V131.25
				h-32.813v-9.375H187.5v9.375h-18.75v-9.375h-9.375v9.375H150V75h101.334l-6.858-13.711C225.577,23.484,187.58,0,145.313,0
				c-42.267,0-80.265,23.484-99.165,61.289L39.291,75h101.334v56.25H42.188v14.063H14.063v9.375h28.125v63.019
				c-2.981,6.516-4.688,13.734-4.688,21.356c0,17.438,8.723,32.85,22.008,42.188H4.688v9.375h281.25v-9.375H255.206z
				 M196.875,131.25h9.375V150h-9.375V131.25z M215.625,159.375v18.75h-56.25v-18.75H215.625z M168.75,140.625h18.75V150h-18.75
				V140.625z M236.091,65.48l0.075,0.145h-44.137c-1.313-21.384-11.573-41.1-27.98-54.478
				C194.981,16.875,221.644,36.577,236.091,65.48z M54.459,65.62l0.075-0.14c14.452-28.903,41.109-48.609,72.042-54.338
				C110.17,24.52,99.914,44.241,98.597,65.62H54.459z M107.981,65.625c1.575-22.491,14.41-42.844,34.299-53.892l3.033-1.683
				l3.033,1.683c19.889,11.048,32.723,31.402,34.298,53.892H107.981z M51.562,140.625L51.562,140.625h107.814V150H150v37.5h75V150
				h-9.375v-9.375h23.438v107.813H139.73c0.563-3.047,0.895-6.169,0.895-9.375c0-28.43-23.133-51.563-51.563-51.563
				c-14.78,0-28.088,6.286-37.5,16.284V140.625z M46.875,239.063c0-23.264,18.928-42.188,42.188-42.188s42.188,18.923,42.188,42.188
				s-18.928,42.188-42.188,42.188S46.875,262.327,46.875,239.063z M220.313,271.876c0,3.431,0.994,6.605,2.606,9.375H118.617
				c8.241-5.795,14.696-13.928,18.427-23.438h89.747C222.853,261.254,220.313,266.246,220.313,271.876z M239.063,281.25
				c-5.17,0-9.375-4.205-9.375-9.375c0-5.17,4.205-9.375,9.375-9.375c5.17,0,9.375,4.205,9.375,9.375
				C248.438,277.045,244.233,281.25,239.063,281.25z"/>
			<path d="M89.063,220.313c-10.341,0-18.75,8.409-18.75,18.75s8.409,18.75,18.75,18.75s18.75-8.409,18.75-18.75
				S99.403,220.313,89.063,220.313z M89.063,248.438c-5.17,0-9.375-4.205-9.375-9.375s4.205-9.375,9.375-9.375
				c5.17,0,9.375,4.205,9.375,9.375S94.233,248.438,89.063,248.438z"/>
		</g>
	</g>
</g>
</svg>