<?xml version="1.0" encoding="utf-8"?><svg version="1.1" id="Layer_1" xmlns="http://www.w3.org/2000/svg" xmlns:xlink="http://www.w3.org/1999/xlink" x="0px" y="0px" viewBox="0 0 70.21 122.88" style="enable-background:new 0 0 70.21 122.88" xml:space="preserve"><style type="text/css">.st0{fill-rule:evenodd;clip-rule:evenodd;fill:#D1372D;}</style><g><path class="st0" d="M19.62,25.08h8.48V8.3H16.41v17.04C17.45,25.17,18.53,25.08,19.62,25.08L19.62,25.08z M42,25.08h8.59 c1.05,0,2.09,0.08,3.1,0.25V8.3H42V25.08L42,25.08z M57.08,26.19c7.63,2.69,13.13,9.99,13.13,18.51v2.88H0v-2.88 c0-8.48,5.45-15.74,13.02-18.47V8.3h-0.29c-2.28,0-4.15-1.87-4.15-4.15v0C8.58,1.87,10.44,0,12.73,0h44.65 c2.28,0,4.15,1.87,4.15,4.15v0c0,2.28-1.87,4.15-4.15,4.15h-0.29V26.19L57.08,26.19z M70.21,52.12v33.4H0v-33.4H70.21L70.21,52.12z M70.21,90.06v10.65c0,5-2.76,9.38-6.84,11.69v6.86c0,1.99-1.63,3.62-3.62,3.62H10.45c-1.99,0-3.62-1.63-3.62-3.62v-6.86 C2.76,110.09,0,105.71,0,100.71V90.06H70.21L70.21,90.06z"/></g></svg>